<svg width="15" height="16" viewBox="0 0 15 16" fill="none" xmlns="http://www.w3.org/2000/svg">
<path fill-rule="evenodd" clip-rule="evenodd" d="M7.63307 1.68342C7.5469 1.653 7.4529 1.653 7.36673 1.68342L2.36673 3.44879C2.20683 3.50524 2.0999 3.65639 2.0999 3.82597V9.07924C2.0999 9.93678 2.43297 10.7081 3.06139 11.1909C4.38265 12.206 6.33789 13.5405 7.28625 14.1796C7.41706 14.2677 7.58274 14.2677 7.71355 14.1796C8.66191 13.5405 10.6172 12.206 11.9384 11.1909C12.5668 10.7081 12.8999 9.93678 12.8999 9.07924V3.82597C12.8999 3.65639 12.793 3.50524 12.6331 3.44879L7.63307 1.68342ZM6.96721 0.55188C7.31191 0.430176 7.68789 0.430176 8.03259 0.55188L13.0326 2.31724C13.6722 2.54307 14.0999 3.14766 14.0999 3.82597V9.07924C14.0999 10.2421 13.6432 11.3944 12.6695 12.1425C11.315 13.1831 9.33108 14.5366 8.38417 15.1747C7.84801 15.536 7.1518 15.536 6.61563 15.1747C5.66872 14.5366 3.68478 13.1831 2.33032 12.1425C1.35656 11.3944 0.899902 10.2421 0.899902 9.07924V3.82597C0.899902 3.14766 1.3276 2.54307 1.96721 2.31724L6.96721 0.55188Z" fill="#596080"/>
<path fill-rule="evenodd" clip-rule="evenodd" d="M10.9242 5.57573C11.1585 5.81005 11.1585 6.18995 10.9242 6.42426L7.27772 10.0707C6.84814 10.5003 6.15166 10.5003 5.72208 10.0707L4.07564 8.42426C3.84132 8.18995 3.84132 7.81005 4.07564 7.57573C4.30995 7.34142 4.68985 7.34142 4.92417 7.57573L6.4999 9.15147L10.0756 5.57573C10.31 5.34142 10.6899 5.34142 10.9242 5.57573Z" fill="#596080"/>
</svg>
